<svg width="112px" height="35px" viewBox="0 0 112 35" version="1.1" xmlns="http://www.w3.org/2000/svg" xmlns:xlink="http://www.w3.org/1999/xlink">
    <g id="Draft" stroke="none" stroke-width="1" fill="none" fill-rule="evenodd">
        <g id="My-skhera-Copy" transform="translate(-165.000000, -52.000000)">
            <g id="Logo_Jible" transform="translate(165.000000, 52.000000)">
                <path d="M10.8419331,27.3 C10.8419331,29.8666795 10.2340581,31.7666605 9.01828996,33 C7.8025218,34.2333395 5.86231816,34.85 3.19762082,34.85 C2.66468135,34.85 2.05680639,34.8083338 1.3739777,34.725 C0.691149002,34.6416663 0.233161017,34.566667 -1.42108547e-14,34.5 L-1.42108547e-14,30.95 C0.932644068,31.1166675 2.06512345,31.2 3.39747212,31.2 C4.46335105,31.2 5.26274826,30.9250028 5.79568773,30.375 C6.3286272,29.8249973 6.59509294,28.916673 6.59509294,27.65 L6.59509294,1.5 L10.8419331,1.5 L10.8419331,27.3 Z M22.3333829,9.85 L22.3333829,34.25 L18.0865428,34.25 L18.0865428,9.85 L22.3333829,9.85 Z M20.1849814,4.97379915e-14 C21.0843168,4.97379915e-14 21.7754623,0.199998 22.2584387,0.6 C22.7414151,1 22.9828996,1.566663 22.9828996,2.3 L22.9828996,3.75 C22.9828996,4.483337 22.7414151,5.04166475 22.2584387,5.425 C21.7754623,5.80833525 21.0843168,6 20.1849814,6 C19.3189548,6 18.6444634,5.80833525 18.161487,5.425 C17.6785106,5.04166475 17.437026,4.483337 17.437026,3.75 L17.437026,2.3 C17.437026,1.566663 17.6785106,1 18.161487,0.6 C18.6444634,0.199998 19.3189548,4.97379915e-14 20.1849814,4.97379915e-14 Z M33.3252045,13.1 C34.1912311,11.8666605 35.1904776,10.91667 36.322974,10.25 C37.4554703,9.58333 38.6379121,9.25 39.8703346,9.25 C41.935475,9.25 43.5342694,9.97499275 44.6667658,11.425 C45.7992622,12.8750073 46.3655019,14.9833195 46.3655019,17.75 L46.3655019,25.65 C46.3655019,28.6833485 45.6493752,30.9749923 44.2171004,32.525 C42.7848256,34.0750078 40.5698291,34.85 37.5720446,34.85 C34.6408775,34.85 32.4924975,34.1 31.1268401,32.6 C29.7611828,31.1 29.0783643,28.816682 29.0783643,25.75 L29.0783643,0.1 L33.3252045,0.1 L33.3252045,13.1 Z M38.8710781,13.05 C37.9051253,13.05 36.9225329,13.416663 35.9232714,14.15 C34.9240099,14.883337 34.0579962,15.883327 33.3252045,17.15 L33.3252045,26.25 C33.3252045,27.8833415 33.6999219,29.133329 34.449368,30 C35.1988142,30.866671 36.2396959,31.3 37.5720446,31.3 C40.6031378,31.3 42.1186617,29.5833505 42.1186617,26.15 L42.1186617,18.35 C42.1186617,14.816649 41.0361447,13.05 38.8710781,13.05 Z M57.1075093,0.1 L57.1075093,34.25 L52.8606691,34.25 L52.8606691,0.1 L57.1075093,0.1 Z M72.0963569,9.25 C74.8942891,9.25 77.026015,10.016659 78.4915985,11.55 C79.957182,13.083341 80.6899628,15.2999855 80.6899628,18.2 L80.6899628,23.35 L67.8495167,23.35 L67.8495167,26.3 C67.8495167,28.0000085 68.2575424,29.2249963 69.0736059,29.975 C69.8896695,30.7250038 71.1803629,31.1 72.9457249,31.1 C74.6777782,31.1 76.8428123,30.833336 79.4408922,30.3 L79.5408178,34 C76.4431072,34.5666695 74.2281108,34.85 72.8957621,34.85 C69.5981991,34.85 67.2249887,34.1333405 65.7760595,32.7 C64.3271303,31.2666595 63.6026766,29.050015 63.6026766,26.05 L63.6026766,18.2 C63.6026766,15.2999855 64.3104762,13.083341 65.7260967,11.55 C67.1417171,10.016659 69.265116,9.25 72.0963569,9.25 Z M72.0963569,12.8 C70.7973169,12.8 69.7647622,13.2083293 68.9986617,14.025 C68.2325612,14.8416708 67.8495167,16.016659 67.8495167,17.55 L67.8495167,19.95 L76.4431227,19.95 L76.4431227,17.7 C76.4431227,16.099992 76.0517511,14.8833375 75.2689963,14.05 C74.4862414,13.2166625 73.4287055,12.8 72.0963569,12.8 Z" id="Jible" fill="#1A1A1A" fill-rule="nonzero"></path>
                <g id="Symbole" transform="translate(86.852045, 0.083333)">
                    <rect id="Rectangle" fill="#419D78" x="0" y="0" width="24.9814126" height="34.5833333"></rect>
                    <path d="M12.4907063,10.1819249 C15.8103717,10.1819249 18.5014922,7.48880205 18.5014922,4.16666667 L22.8996283,4.16666667 L22.8996283,4.16666667 C22.8996283,9.91963281 18.2393952,14.5833333 12.4907063,14.5833333 C6.74201747,14.5833333 2.08178439,9.91963281 2.08178439,4.16666667 L6.47992041,4.16666667 L6.47992041,4.16666667 C6.47992041,7.48880205 9.17104093,10.1819249 12.4907063,10.1819249 Z" id="Combined-Shape" fill="#FFFFFF" fill-rule="nonzero"></path>
                </g>
            </g>
        </g>
    </g>
</svg>