<svg width="42" height="31" viewBox="0 0 42 31" fill="none" xmlns="http://www.w3.org/2000/svg">
<path d="M31.6411 26.7558C31.6411 29.0799 33.513 30.964 35.822 30.964C38.1309 30.964 40.0028 29.0799 40.0028 26.7558L35.822 25.1533L31.6411 26.7558Z" fill="black"/>
<path d="M37.0819 20.6672L32.9595 22.5808L33.3052 26.7558H42C42 23.7561 39.8897 21.2529 37.0819 20.6672Z" fill="#4D3BD8"/>
<path d="M37.0819 20.6669L31.8384 5.12821L29.4726 3.52567L27.5674 5.12821L30.3869 18.1873L27.7724 22.7454H21.6371L20.0449 24.6758L21.6371 26.7558H33.305L37.0819 20.6669Z" fill="#6050DC"/>
<path d="M12.008 30.9641C14.317 30.9641 16.1889 29.0799 16.1889 26.7559L12.008 25.1534L7.82715 26.7559C7.82707 29.0799 9.69896 30.9641 12.008 30.9641Z" fill="black"/>
<path d="M25.5805 2.53509H21.6377V0.133163H24.5808L25.5805 2.53509Z" fill="black"/>
<path d="M31.2882 0.133163H24.5811V5.12813H31.2882C32.6586 5.12813 33.7694 4.00994 33.7694 2.63068C33.7694 1.25143 32.6585 0.133163 31.2882 0.133163Z" fill="#4D3BD8"/>
<path d="M21.5148 22.7454L18.625 14.9451L7.82666 16.1461V22.1785L18.1858 26.7558H21.6371V22.7454H21.5148Z" fill="#6050DC"/>
<path d="M12.0078 20.5372C8.59575 20.5372 5.82959 23.3214 5.82959 26.7558H18.186C18.186 23.3215 15.42 20.5372 12.0078 20.5372Z" fill="#4D3BD8"/>
<rect y="3.17949" width="18.9305" height="11.9231" rx="1.6" fill="#419D78"/>
<path fill-rule="evenodd" clip-rule="evenodd" d="M6.73524 7C6.81256 7 6.87197 7.01729 6.91349 7.05188C6.95501 7.08646 6.97577 7.13546 6.97577 7.19887V7.32424C6.97577 7.38765 6.95501 7.43592 6.91349 7.46907C6.87197 7.50221 6.81256 7.51878 6.73524 7.51878C6.66079 7.51878 6.60281 7.50221 6.56129 7.46907C6.51977 7.43592 6.49901 7.38765 6.49901 7.32424V7.19887C6.49901 7.13546 6.51977 7.08646 6.56129 7.05188C6.60281 7.01729 6.66079 7 6.73524 7ZM5.77528 9.8533C5.87979 9.74666 5.93205 9.58239 5.93205 9.36046V7.1297H5.56696V9.39072C5.56696 9.50024 5.54405 9.57878 5.49824 9.62634C5.45242 9.67389 5.3837 9.69767 5.29207 9.69767C5.17753 9.69767 5.08018 9.69046 5 9.67605V9.983C5.02004 9.98876 5.05942 9.99525 5.11812 10.0025C5.17682 10.0097 5.22907 10.0133 5.27489 10.0133C5.50397 10.0133 5.67076 9.95994 5.77528 9.8533ZM6.91993 9.96138V7.85167H6.55485V9.96138H6.91993ZM8.12258 7.88625C8.02522 7.9439 7.93932 8.02604 7.86487 8.13268V7.00865H7.49978V9.22644C7.49978 9.4916 7.55848 9.68902 7.67588 9.81872C7.79328 9.94841 7.97797 10.0133 8.22996 10.0133C8.48767 10.0133 8.67808 9.94625 8.80121 9.81223C8.92434 9.67821 8.9859 9.48007 8.9859 9.2178V8.53473C8.9859 8.29551 8.93722 8.11322 8.83987 7.98785C8.74251 7.86248 8.60507 7.79979 8.42753 7.79979C8.32158 7.79979 8.21993 7.82861 8.12258 7.88625ZM8.34163 8.12835C8.25859 8.12835 8.17412 8.16005 8.08822 8.22346C8.00231 8.28687 7.92786 8.37333 7.86487 8.48285V9.26967C7.86487 9.4109 7.89708 9.51898 7.96151 9.59391C8.02594 9.66885 8.11542 9.70632 8.22996 9.70632C8.49053 9.70632 8.62081 9.55789 8.62081 9.26103V8.58661C8.62081 8.2811 8.52775 8.12835 8.34163 8.12835ZM9.90936 9.96138V7.00865H9.54427V9.96138H9.90936ZM11.1979 7.79979C11.4384 7.79979 11.6217 7.86608 11.7477 7.99866C11.8737 8.13123 11.9367 8.32289 11.9367 8.57364V9.01893H10.8328V9.274C10.8328 9.42099 10.8679 9.5269 10.938 9.59175C11.0082 9.6566 11.1192 9.68902 11.2709 9.68902C11.4198 9.68902 11.6059 9.66597 11.8293 9.61985L11.8379 9.93977C11.5716 9.98876 11.3812 10.0133 11.2666 10.0133C10.9831 10.0133 10.7791 9.9513 10.6546 9.82736C10.53 9.70343 10.4677 9.51177 10.4677 9.25238V8.57364C10.4677 8.32289 10.5286 8.13123 10.6503 7.99866C10.772 7.86608 10.9545 7.79979 11.1979 7.79979ZM10.9316 8.21265C10.9975 8.14204 11.0862 8.10674 11.1979 8.10674C11.3124 8.10674 11.4034 8.14276 11.4706 8.21482C11.5379 8.28687 11.5716 8.39207 11.5716 8.53041V8.72495H10.8328V8.51744C10.8328 8.38486 10.8657 8.28327 10.9316 8.21265Z" fill="white"/>
<rect x="7.82666" y="13.7442" width="13.8103" height="2.40185" fill="#4D3BD8"/>
</svg>
