<svg width="113" height="35" viewBox="0 0 113 35" fill="none" xmlns="http://www.w3.org/2000/svg">
<path fill-rule="evenodd" clip-rule="evenodd" d="M20.3652 0C21.2726 0 21.9699 0.199998 22.4572 0.6C22.9445 1 23.1881 1.56666 23.1881 2.3V3.75C23.1881 4.48334 22.9445 5.04167 22.4572 5.425C21.9699 5.80834 21.2726 6 20.3652 6C19.4914 6 18.8109 5.80834 18.3236 5.425C17.8364 5.04167 17.5927 4.48334 17.5927 3.75V2.3C17.5927 1.56666 17.8364 1 18.3236 0.6C18.8109 0.199998 19.4914 0 20.3652 0ZM9.09881 33C10.3254 31.7667 10.9387 29.8667 10.9387 27.3V1.5H6.65398V27.65C6.65398 28.9167 6.38513 29.825 5.84743 30.375C5.30974 30.925 4.5032 31.2 3.42781 31.2C2.08356 31.2 0.940971 31.1167 0 30.95V34.5C0.235243 34.5667 0.69732 34.6417 1.38625 34.725C2.07517 34.8083 2.68847 34.85 3.22617 34.85C5.91466 34.85 7.87219 34.2333 9.09881 33ZM22.5328 34.25V9.85H18.248V34.25H22.5328ZM36.6473 10.25C35.5047 10.9167 34.4965 11.8667 33.6227 13.1V0.1H29.338V25.75C29.338 28.8167 30.0269 31.1 31.4048 32.6C32.7826 34.1 34.9502 34.85 37.9075 34.85C40.9321 34.85 43.1668 34.075 44.6119 32.525C46.057 30.975 46.7795 28.6833 46.7795 25.65V17.75C46.7795 14.9833 46.2082 12.875 45.0656 11.425C43.923 9.97499 42.3099 9.25 40.2263 9.25C38.9829 9.25 37.7899 9.58333 36.6473 10.25ZM39.2181 13.05C38.2436 13.05 37.2522 13.4167 36.244 14.15C35.2358 14.8833 34.3621 15.8833 33.6227 17.15V26.25C33.6227 27.8833 34.0008 29.1333 34.757 30C35.5131 30.8667 36.5633 31.3 37.9075 31.3C40.9657 31.3 42.4947 29.5834 42.4947 26.15V18.35C42.4947 14.8166 41.4025 13.05 39.2181 13.05ZM57.6174 34.25V0.1H53.3326V34.25H57.6174ZM72.7401 9.25C75.563 9.25 77.7137 10.0167 79.1924 11.55C80.6711 13.0833 81.4104 15.3 81.4104 18.2V23.35H68.4553V26.3C68.4553 28 68.867 29.225 69.6903 29.975C70.5137 30.725 71.8159 31.1 73.597 31.1C75.3445 31.1 77.5289 30.8333 80.1502 30.3L80.251 34C77.1256 34.5667 74.8909 34.85 73.5466 34.85C70.2196 34.85 67.8252 34.1333 66.3633 32.7C64.9015 31.2667 64.1706 29.05 64.1706 26.05V18.2C64.1706 15.3 64.8847 13.0833 66.3129 11.55C67.7412 10.0167 69.8836 9.25 72.7401 9.25ZM69.6147 14.025C70.3877 13.2083 71.4294 12.8 72.7401 12.8C74.0843 12.8 75.1513 13.2167 75.941 14.05C76.7308 14.8833 77.1256 16.1 77.1256 17.7V19.95H68.4553V17.55C68.4553 16.0167 68.8418 14.8417 69.6147 14.025Z" fill="white"/>
<path fill-rule="evenodd" clip-rule="evenodd" d="M112.832 0.0833435H87.6275V34.6667H112.832V0.0833435ZM100.23 14.6667C94.4297 14.6667 89.7279 10.003 89.7279 4.25001H94.1653C94.1653 7.57214 96.8804 10.2653 100.23 10.2653C103.579 10.2653 106.294 7.57214 106.294 4.25001H110.732C110.732 10.003 106.03 14.6667 100.23 14.6667Z" fill="white"/>
</svg>
